<svg xmlns="http://www.w3.org/2000/svg" viewBox="0 0 64 64" role="img" aria-label="Gianni Perugini">
  <circle cx="32" cy="32" r="32" fill="#0a0a0a"/>
  <circle cx="32" cy="32" r="26" fill="#8b0000"/>
  <circle cx="32" cy="32" r="22" fill="#a30d0d"/>
  <!-- crow silhouette -->
  <path fill="#3a0505" d="M18 34c2-7 8-12 15-13 2 0 4 .3 6 1l3-5 1.5 5.5c3 1.2 5 3.4 6 6.2-2.2-.4-4.4-.4-6.5.2-1.8 4.2-5.6 7-10.5 7.8-5 .8-9.2-1.2-12-5.2-1.2 1.8-2.8 3.2-4.8 4.2 0-1.2.2-2.5.6-3.7z"/>
  <path fill="#2a0404" d="M28 39.5c3.2.6 6.4.4 9.2-.8l1.4 4.2c-3.6 1.4-7.6 1.6-11.4.6l.8-4z"/>
</svg>
